# Blender 4.0.2
# www.blender.org
mtllib doom.mtl
o Doom
v 323.092010 76.992203 -2.500000
v 323.092010 76.992203 2.500000
v 323.092010 77.119102 2.500000
v 323.540985 76.720703 -2.500000
v 323.092010 77.119102 -2.500000
v 323.216003 77.229500 -2.500000
v 323.216003 77.229500 2.500000
v 323.540985 76.720703 2.500000
v 323.553986 77.518600 2.500000
v 323.553986 77.518600 -2.500000
v 324.816010 75.745102 -2.500000
v 324.050995 77.909203 -2.500000
v 324.050995 77.909203 2.500000
v 324.816010 75.745102 2.500000
v 324.501007 78.243202 2.500000
v 324.501007 78.243202 -2.500000
v 324.652008 78.352501 2.500000
v 324.652008 78.352501 -2.500000
v 326.239014 79.515602 2.500000
v 326.239014 79.515602 -2.500000
v 326.795013 74.242203 -2.500000
v 326.795013 74.242203 2.500000
v 326.080994 154.763000 -2.500000
v 325.895996 230.011002 2.500000
v 325.895996 230.011002 -2.500000
v 345.289001 229.959000 2.500000
v 372.441986 202.610001 -2.500000
v 345.289001 229.959000 -2.500000
v 326.080994 154.763000 2.500000
v 372.441986 202.610001 2.500000
v 363.942993 104.016998 -2.500000
v 375.945007 190.587997 -2.500000
v 373.401001 199.272995 -2.500000
v 374.243988 196.360992 -2.500000
v 374.946014 193.955994 -2.500000
v 375.485992 192.139008 -2.500000
v 363.942993 104.016998 2.500000
v 375.945007 190.587997 2.500000
v 373.401001 199.272995 2.500000
v 374.243988 196.360992 2.500000
v 374.946014 193.955994 2.500000
v 375.485992 192.139008 2.500000
v 329.364990 72.298798 -2.500000
v 332.406006 70.005898 -2.500000
v 363.862000 73.858398 -2.500000
v 329.364990 72.298798 2.500000
v 332.406006 70.005898 2.500000
v 363.862000 73.858398 2.500000
v 335.802002 67.448196 -2.500000
v 335.802002 67.448196 2.500000
v 339.437012 64.714798 -2.500000
v 339.437012 64.714798 2.500000
v 343.194000 61.894501 -2.500000
v 343.194000 61.894501 2.500000
v 346.953003 59.075199 -2.500000
v 363.847992 69.504898 -2.500000
v 346.953003 59.075199 2.500000
v 363.847992 69.504898 2.500000
v 364.683990 229.878998 2.500000
v 364.683990 229.878998 -2.500000
v 370.265015 210.246994 -2.500000
v 370.546997 209.261002 -2.500000
v 371.390015 206.296005 -2.500000
v 370.265015 210.246994 2.500000
v 370.546997 209.261002 2.500000
v 371.390015 206.296005 2.500000
v 350.601990 56.342800 -2.500000
v 363.826996 64.114304 -2.500000
v 350.601990 56.342800 2.500000
v 363.826996 64.114304 2.500000
v 354.019989 53.785198 -2.500000
v 363.795013 59.247101 -2.500000
v 354.019989 53.785198 2.500000
v 363.795013 59.247101 2.500000
v 357.092010 51.492199 -2.500000
v 363.760010 55.016602 -2.500000
v 357.092010 51.492199 2.500000
v 363.760010 55.016602 2.500000
v 359.699005 49.548801 -2.500000
v 363.713989 51.534199 -2.500000
v 359.699005 49.548801 2.500000
v 363.713989 51.534199 2.500000
v 361.727997 48.044899 -2.500000
v 361.727997 48.044899 2.500000
v 363.058014 47.069302 -2.500000
v 363.671997 48.915001 -2.500000
v 363.058014 47.069302 2.500000
v 363.671997 48.915001 2.500000
v 363.480988 46.740200 -2.500000
v 363.622009 47.267601 -2.500000
v 363.480988 46.740200 2.500000
v 363.622009 47.267601 2.500000
v 363.572998 46.707001 -2.500000
v 363.572998 46.707001 2.500000
v 369.894989 83.273399 -2.500000
v 388.019989 103.936996 -2.500000
v 376.015015 190.587997 -2.500000
v 369.894989 83.273399 2.500000
v 388.019989 103.936996 2.500000
v 376.015015 190.587997 2.500000
v 370.194000 82.233398 -2.500000
v 382.093994 83.247101 -2.500000
v 370.194000 82.233398 2.500000
v 382.093994 83.247101 2.500000
v 371.097992 79.109398 -2.500000
v 381.796997 82.207001 -2.500000
v 371.097992 79.109398 2.500000
v 381.796997 82.207001 2.500000
v 372.222992 75.221703 -2.500000
v 380.901001 79.083000 -2.500000
v 372.222992 75.221703 2.500000
v 380.901001 79.083000 2.500000
v 373.248993 71.699203 -2.500000
v 379.778992 75.199203 -2.500000
v 373.248993 71.699203 2.500000
v 379.778992 75.199203 2.500000
v 374.153015 68.625999 -2.500000
v 378.756012 71.681602 -2.500000
v 374.153015 68.625999 2.500000
v 378.756012 71.681602 2.500000
v 374.903992 66.086899 -2.500000
v 377.859985 68.612297 -2.500000
v 374.903992 66.086899 2.500000
v 377.859985 68.612297 2.500000
v 375.483002 64.168900 -2.500000
v 377.109009 66.078102 -2.500000
v 375.483002 64.168900 2.500000
v 377.109009 66.078102 2.500000
v 375.856995 62.954102 -2.500000
v 376.533997 64.164101 -2.500000
v 375.856995 62.954102 2.500000
v 376.533997 64.164101 2.500000
v 375.838989 190.988998 2.500000
v 375.838989 190.988998 -2.500000
v 375.968994 62.530300 -2.500000
v 376.046997 62.530300 -2.500000
v 376.160004 62.953098 -2.500000
v 375.968994 62.530300 2.500000
v 376.046997 62.530300 2.500000
v 376.160004 62.953098 2.500000
v 376.114014 190.957993 2.500000
v 376.114014 190.957993 -2.500000
v 376.438995 192.013000 -2.500000
v 425.721985 215.750000 -2.500000
v 425.721985 94.093803 -2.500000
v 376.438995 192.013000 2.500000
v 425.721985 215.750000 2.500000
v 425.721985 94.093803 2.500000
v 376.936005 193.682999 2.500000
v 376.936005 193.682999 -2.500000
v 377.582001 195.893997 2.500000
v 377.582001 195.893997 -2.500000
v 378.358002 198.570007 2.500000
v 378.358002 198.570007 -2.500000
v 379.239990 201.639008 2.500000
v 379.239990 201.639008 -2.500000
v 380.209991 205.026993 2.500000
v 380.209991 205.026993 -2.500000
v 380.985992 207.751999 2.500000
v 380.985992 207.751999 -2.500000
v 381.247009 208.660004 2.500000
v 381.247009 208.660004 -2.500000
v 381.507996 209.574997 2.500000
v 381.507996 209.574997 -2.500000
v 382.290985 212.319000 2.500000
v 382.290985 212.319000 -2.500000
v 383.286011 215.794998 2.500000
v 383.286011 215.794998 -2.500000
v 384.203003 219.013000 2.500000
v 384.203003 219.013000 -2.500000
v 385.024994 221.889008 2.500000
v 385.024994 221.889008 -2.500000
v 417.303986 230.011002 -2.500000
v 417.303986 230.011002 2.500000
v 385.730988 224.345001 2.500000
v 385.730988 224.345001 -2.500000
v 386.287994 226.296005 2.500000
v 386.287994 226.296005 -2.500000
v 386.679993 227.666000 2.500000
v 386.679993 227.666000 -2.500000
v 386.830994 228.195007 2.500000
v 386.830994 228.195007 -2.500000
v 386.884003 228.371002 2.500000
v 386.884003 228.371002 -2.500000
v 387.385010 230.011002 2.500000
v 387.385010 230.011002 -2.500000
v 388.178986 86.474602 -2.500000
v 388.178986 86.474602 2.500000
v 388.196991 84.378899 -2.500000
v 425.717987 81.242203 -2.500000
v 388.196991 84.378899 2.500000
v 425.717987 81.242203 2.500000
v 388.243011 78.084999 -2.500000
v 388.243011 78.084999 2.500000
v 388.302002 68.149399 -2.500000
v 425.714996 69.435501 -2.500000
v 388.302002 68.149399 2.500000
v 425.714996 69.435501 2.500000
v 388.359009 57.912102 -2.500000
v 425.708008 58.650398 -2.500000
v 388.359009 57.912102 2.500000
v 425.708008 58.650398 2.500000
v 388.384003 50.937500 -2.500000
v 388.384003 50.937500 2.500000
v 388.390991 48.613300 -2.500000
v 425.696991 48.864300 -2.500000
v 388.390991 48.613300 2.500000
v 425.696991 48.864300 2.500000
v 388.415009 28.213900 -2.500000
v 425.686005 40.050800 -2.500000
v 388.415009 28.213900 2.500000
v 425.686005 40.050800 2.500000
v 406.777008 14.349600 -2.500000
v 425.671997 32.191399 -2.500000
v 406.777008 14.349600 2.500000
v 425.671997 32.191399 2.500000
v 407.701996 13.653300 -2.500000
v 425.657990 25.257799 -2.500000
v 407.701996 13.653300 2.500000
v 425.657990 25.257799 2.500000
v 410.475006 11.565400 -2.500000
v 425.636993 19.229500 -2.500000
v 410.475006 11.565400 2.500000
v 425.636993 19.229500 2.500000
v 413.934998 8.963870 -2.500000
v 413.934998 8.963870 2.500000
v 417.079010 6.603520 -2.500000
v 425.615997 14.082000 -2.500000
v 417.079010 6.603520 2.500000
v 425.615997 14.082000 2.500000
v 419.837006 4.541020 -2.500000
v 425.595001 9.793950 -2.500000
v 419.837006 4.541020 2.500000
v 425.595001 9.793950 2.500000
v 421.822998 230.007004 2.500000
v 421.822998 230.007004 -2.500000
v 422.122986 2.832030 -2.500000
v 425.566010 6.340820 -2.500000
v 422.122986 2.832030 2.500000
v 425.566010 6.340820 2.500000
v 427.299011 229.992996 2.500000
v 427.299011 229.992996 -2.500000
v 423.869995 1.535160 -2.500000
v 425.537994 3.698240 -2.500000
v 423.869995 1.535160 2.500000
v 425.537994 3.698240 2.500000
v 424.997986 0.708008 -2.500000
v 425.506012 1.843750 -2.500000
v 424.997986 0.708008 2.500000
v 425.506012 1.843750 2.500000
v 425.394012 0.418945 -2.500000
v 425.467987 0.753906 -2.500000
v 425.394012 0.418945 2.500000
v 425.467987 0.753906 2.500000
v 425.432007 0.405273 -2.500000
v 425.432007 0.405273 2.500000
v 434.981995 222.628998 -2.500000
v 434.981995 222.628998 2.500000
v 432.148987 229.970993 2.500000
v 432.148987 229.970993 -2.500000
v 436.290985 229.942001 2.500000
v 435.885010 223.302994 -2.500000
v 436.290985 229.942001 -2.500000
v 435.885010 223.302994 2.500000
v 438.584015 225.334000 -2.500000
v 438.584015 225.334000 2.500000
v 439.653015 229.906006 2.500000
v 439.653015 229.906006 -2.500000
v 441.526001 227.580002 -2.500000
v 441.526001 227.580002 2.500000
v 442.149994 229.865997 2.500000
v 442.149994 229.865997 -2.500000
v 443.515991 229.136993 -2.500000
v 443.515991 229.136993 2.500000
v 443.705994 229.820999 2.500000
v 443.705994 229.820999 -2.500000
v 444.242004 229.613998 -2.500000
v 444.242004 229.613998 2.500000
v 444.242004 229.785004 2.500000
v 444.242004 229.785004 -2.500000
v 223.608994 154.895996 -2.500000
v 223.580994 220.671005 2.500000
v 223.580994 220.671005 -2.500000
v 229.746994 225.328995 2.500000
v 261.179993 187.281006 -2.500000
v 229.746994 225.328995 -2.500000
v 223.608994 154.895996 2.500000
v 261.179993 187.281006 2.500000
v 223.610001 151.524994 -2.500000
v 261.205994 149.841995 -2.500000
v 223.610001 151.524994 2.500000
v 261.205994 149.841995 2.500000
v 223.621002 141.408997 -2.500000
v 261.205994 147.901001 -2.500000
v 223.621002 141.408997 2.500000
v 261.205994 147.901001 2.500000
v 223.639999 128.287994 -2.500000
v 261.221985 134.343002 -2.500000
v 261.209991 142.074005 -2.500000
v 223.639999 128.287994 2.500000
v 261.221985 134.343002 2.500000
v 261.209991 142.074005 2.500000
v 223.664993 115.861000 -2.500000
v 261.268005 119.811996 -2.500000
v 261.243011 126.855003 -2.500000
v 223.664993 115.861000 2.500000
v 261.268005 119.811996 2.500000
v 261.243011 126.855003 2.500000
v 223.694000 104.454002 -2.500000
v 261.328003 107.880997 -2.500000
v 261.296997 113.418999 -2.500000
v 223.694000 104.454002 2.500000
v 261.328003 107.880997 2.500000
v 261.296997 113.418999 2.500000
v 223.725006 94.390602 -2.500000
v 261.390015 100.181000 -2.500000
v 261.359009 103.400002 -2.500000
v 261.381012 100.985001 -2.500000
v 223.725006 94.390602 2.500000
v 261.390015 100.181000 2.500000
v 261.359009 103.400002 2.500000
v 261.381012 100.985001 2.500000
v 223.755997 85.997101 -2.500000
v 261.549011 87.956100 -2.500000
v 223.755997 85.997101 2.500000
v 261.549011 87.956100 2.500000
v 223.787994 79.598602 -2.500000
v 223.787994 79.598602 2.500000
v 223.809006 76.540001 -2.500000
v 223.809006 76.540001 2.500000
v 223.820007 75.520500 -2.500000
v 223.820007 75.520500 2.500000
v 223.977997 61.894501 -2.500000
v 241.572998 48.851601 -2.500000
v 223.977997 61.894501 2.500000
v 241.572998 48.851601 2.500000
v 235.884003 230.011002 2.500000
v 235.884003 230.011002 -2.500000
v 262.687012 188.391006 -2.500000
v 262.687012 188.391006 2.500000
v 310.973999 230.011002 2.500000
v 264.195007 189.503998 -2.500000
v 273.428986 189.529999 -2.500000
v 310.973999 230.011002 -2.500000
v 264.195007 189.503998 2.500000
v 273.428986 189.529999 2.500000
v 242.455994 48.197300 -2.500000
v 242.455994 48.197300 2.500000
v 248.421997 43.788101 -2.500000
v 273.631012 46.459000 -2.500000
v 248.421997 43.788101 2.500000
v 273.631012 46.459000 2.500000
v 251.427002 41.572300 -2.500000
v 268.884003 42.888699 -2.500000
v 251.427002 41.572300 2.500000
v 268.884003 42.888699 2.500000
v 254.057999 39.640598 -2.500000
v 264.954010 39.939499 -2.500000
v 254.057999 39.640598 2.500000
v 264.954010 39.939499 2.500000
v 256.240997 38.043900 -2.500000
v 256.240997 38.043900 2.500000
v 257.903015 36.837898 -2.500000
v 261.971985 37.709999 -2.500000
v 257.903015 36.837898 2.500000
v 261.971985 37.709999 2.500000
v 258.972992 36.074200 -2.500000
v 260.069000 36.299801 -2.500000
v 258.972992 36.074200 2.500000
v 260.069000 36.299801 2.500000
v 259.278015 35.806599 -2.500000
v 259.552002 35.806599 -2.500000
v 259.278015 35.806599 2.500000
v 259.552002 35.806599 2.500000
v 273.640991 96.873001 -2.500000
v 279.061005 50.553699 -2.500000
v 291.446991 59.910198 -2.500000
v 285.044006 55.069302 -2.500000
v 289.846985 58.700199 -2.500000
v 279.061005 50.553699 2.500000
v 273.640991 96.873001 2.500000
v 291.446991 59.910198 2.500000
v 285.044006 55.069302 2.500000
v 289.846985 58.700199 2.500000
v 282.636993 189.529999 2.500000
v 282.636993 189.529999 -2.500000
v 285.731995 105.789001 -2.500000
v 285.731995 105.789001 2.500000
v 284.197998 188.419006 2.500000
v 284.197998 188.419006 -2.500000
v 285.731995 187.281006 2.500000
v 285.731995 187.281006 -2.500000
v 317.165009 225.380997 -2.500000
v 317.165009 225.380997 2.500000
v 323.329010 84.013702 -2.500000
v 323.329010 84.013702 2.500000
v 323.329010 220.751007 -2.500000
v 323.329010 220.751007 2.500000
v 121.186996 83.696297 -2.500000
v 121.186996 83.696297 2.500000
v 121.186996 152.276001 2.500000
v 153.097000 59.803699 -2.500000
v 121.186996 152.276001 -2.500000
v 158.757996 105.789001 -2.500000
v 158.757996 105.789001 2.500000
v 153.097000 59.803699 2.500000
v 121.214996 220.882996 2.500000
v 121.214996 220.882996 -2.500000
v 158.785995 187.281006 -2.500000
v 158.757996 146.535004 -2.500000
v 158.785995 187.281006 2.500000
v 158.757996 146.535004 2.500000
v 127.327003 225.460999 2.500000
v 127.327003 225.460999 -2.500000
v 133.438004 230.011002 2.500000
v 133.438004 230.011002 -2.500000
v 160.029007 188.207001 -2.500000
v 160.029007 188.207001 2.500000
v 208.367004 230.011002 2.500000
v 160.199997 188.334000 -2.500000
v 161.100006 188.908005 -2.500000
v 161.841003 189.272003 -2.500000
v 162.026001 189.319000 -2.500000
v 162.884003 189.365997 -2.500000
v 164.979004 189.427994 -2.500000
v 167.912994 189.475006 -2.500000
v 170.513000 189.500000 -2.500000
v 171.380005 189.503998 -2.500000
v 208.367004 230.011002 -2.500000
v 160.199997 188.334000 2.500000
v 161.100006 188.908005 2.500000
v 161.841003 189.272003 2.500000
v 162.026001 189.319000 2.500000
v 162.884003 189.365997 2.500000
v 164.979004 189.427994 2.500000
v 167.912994 189.475006 2.500000
v 170.513000 189.500000 2.500000
v 171.380005 189.503998 2.500000
v 154.699997 58.605499 -2.500000
v 177.220993 91.942398 -2.500000
v 170.559998 96.925797 -2.500000
v 171.154999 96.480499 -2.500000
v 172.942001 95.142601 -2.500000
v 175.179993 93.469704 -2.500000
v 154.699997 58.605499 2.500000
v 177.220993 91.942398 2.500000
v 170.559998 96.925797 2.500000
v 171.154999 96.480499 2.500000
v 172.942001 95.142601 2.500000
v 175.179993 93.469704 2.500000
v 159.511993 55.011700 -2.500000
v 181.664993 88.627899 -2.500000
v 179.014999 90.601601 -2.500000
v 180.513000 89.485397 -2.500000
v 159.511993 55.011700 2.500000
v 181.664993 88.627899 2.500000
v 179.014999 90.601601 2.500000
v 180.513000 89.485397 2.500000
v 165.514999 50.540001 -2.500000
v 182.733002 87.848602 -2.500000
v 182.421005 88.071297 -2.500000
v 182.684006 87.877899 -2.500000
v 182.731003 87.849602 -2.500000
v 165.514999 50.540001 2.500000
v 182.733002 87.848602 2.500000
v 182.421005 88.071297 2.500000
v 182.684006 87.877899 2.500000
v 182.731003 87.849602 2.500000
v 161.932999 189.291000 2.500000
v 161.932999 189.291000 -2.500000
v 170.973007 46.488300 -2.500000
v 170.973007 46.488300 2.500000
v 175.753998 42.955101 -2.500000
v 196.494003 43.980499 -2.500000
v 199.781006 46.434601 -2.500000
v 175.753998 42.955101 2.500000
v 196.494003 43.980499 2.500000
v 199.781006 46.434601 2.500000
v 180.136993 189.529999 2.500000
v 180.136993 189.529999 -2.500000
v 179.725006 40.037102 -2.500000
v 193.498993 41.756802 -2.500000
v 179.725006 40.037102 2.500000
v 193.498993 41.756802 2.500000
v 182.753998 37.834000 -2.500000
v 188.677002 38.212898 -2.500000
v 190.869003 39.815399 -2.500000
v 182.753998 37.834000 2.500000
v 188.677002 38.212898 2.500000
v 190.869003 39.815399 2.500000
v 181.617996 188.313004 2.500000
v 181.617996 188.313004 -2.500000
v 183.100006 187.123001 2.500000
v 183.100006 187.123001 -2.500000
v 214.533005 225.380997 -2.500000
v 214.533005 225.380997 2.500000
v 182.785995 87.916000 -2.500000
v 220.671005 62.132801 -2.500000
v 202.412003 48.405300 -2.500000
v 203.287994 49.062500 -2.500000
v 182.785995 87.916000 2.500000
v 220.671005 62.132801 2.500000
v 202.412003 48.405300 2.500000
v 203.287994 49.062500 2.500000
v 184.707993 36.445301 -2.500000
v 186.994003 37.000000 -2.500000
v 184.707993 36.445301 2.500000
v 186.994003 37.000000 2.500000
v 182.837006 88.204102 -2.500000
v 182.837006 88.204102 2.500000
v 182.882004 88.756798 -2.500000
v 182.882004 88.756798 2.500000
v 182.921005 89.611298 -2.500000
v 182.921005 89.611298 2.500000
v 182.957001 90.804703 -2.500000
v 182.957001 90.804703 2.500000
v 182.985001 92.376999 -2.500000
v 182.985001 92.376999 2.500000
v 183.011993 94.366203 -2.500000
v 183.011993 94.366203 2.500000
v 183.033997 96.811501 -2.500000
v 183.033997 96.811501 2.500000
v 183.052002 99.749001 -2.500000
v 183.052002 99.749001 2.500000
v 183.065994 103.221001 -2.500000
v 183.065994 103.221001 2.500000
v 183.078003 107.262001 -2.500000
v 183.078003 107.262001 2.500000
v 183.085999 111.913002 -2.500000
v 183.085999 111.913002 2.500000
v 183.091995 117.211998 -2.500000
v 183.091995 117.211998 2.500000
v 183.095993 123.197998 -2.500000
v 183.095993 123.197998 2.500000
v 183.098999 129.908005 -2.500000
v 183.098999 129.908005 2.500000
v 183.100006 135.514008 -2.500000
v 183.100006 135.514008 2.500000
v 220.671005 220.725006 -2.500000
v 220.671005 220.725006 2.500000
v 185.389008 35.959999 -2.500000
v 185.895996 36.234402 -2.500000
v 185.389008 35.959999 2.500000
v 185.895996 36.234402 2.500000
v 185.455002 35.964802 -2.500000
v 185.455002 35.964802 2.500000
v 185.565002 35.964802 -2.500000
v 185.565002 35.964802 2.500000
v 0.007812 229.639999 -2.500000
v 0.006836 229.641998 2.500000
v 0.006836 229.641998 -2.500000
v 0.053711 229.697998 2.500000
v 0.053711 229.697998 -2.500000
v 0.007812 229.639999 2.500000
v 0.060547 229.595001 -2.500000
v 0.060547 229.595001 2.500000
v 0.335938 229.748001 2.500000
v 0.335938 229.748001 -2.500000
v 0.874023 228.972000 -2.500000
v 0.874023 228.972000 2.500000
v 0.899414 229.792999 2.500000
v 0.899414 229.792999 -2.500000
v 2.947270 227.397995 -2.500000
v 1.786130 229.832993 -2.500000
v 1.786130 229.832993 2.500000
v 2.947270 227.397995 2.500000
v 3.034180 229.867996 2.500000
v 3.034180 229.867996 -2.500000
v 5.919920 225.162003 -2.500000
v 4.690430 229.897995 -2.500000
v 4.690430 229.897995 2.500000
v 5.919920 225.162003 2.500000
v 6.793950 229.923996 2.500000
v 6.793950 229.923996 -2.500000
v 8.588870 223.162003 -2.500000
v 9.386720 229.945999 -2.500000
v 9.386720 229.945999 2.500000
v 8.588870 223.162003 2.500000
v 9.480470 222.496994 -2.500000
v 12.513700 229.964005 -2.500000
v 12.513700 229.964005 2.500000
v 9.480470 222.496994 2.500000
v 18.529301 215.723999 -2.500000
v 16.212900 229.977997 -2.500000
v 16.212900 229.977997 2.500000
v 18.529301 215.723999 2.500000
v 20.528299 229.990005 2.500000
v 20.528299 229.990005 -2.500000
v 18.529301 90.907204 -2.500000
v 18.529301 90.907204 2.500000
v 18.532200 75.786102 -2.500000
v 56.099602 189.264999 -2.500000
v 56.099602 87.400398 -2.500000
v 56.099602 189.264999 2.500000
v 18.532200 75.786102 2.500000
v 56.099602 87.400398 2.500000
v 25.502899 229.998993 -2.500000
v 31.176800 230.003998 -2.500000
v 37.592800 230.007996 -2.500000
v 25.502899 229.998993 2.500000
v 31.176800 230.003998 2.500000
v 37.592800 230.007996 2.500000
v 18.536100 62.414101 -2.500000
v 18.536100 62.414101 2.500000
v 18.541000 50.684601 -2.500000
v 65.580101 35.050800 -2.500000
v 18.541000 50.684601 2.500000
v 65.580101 35.050800 2.500000
v 18.550800 40.495098 -2.500000
v 56.148399 27.979500 -2.500000
v 60.826199 31.486300 -2.500000
v 18.550800 40.495098 2.500000
v 56.148399 27.979500 2.500000
v 60.826199 31.486300 2.500000
v 18.563499 31.740200 -2.500000
v 47.158199 21.245100 -2.500000
v 51.580101 24.556601 -2.500000
v 18.563499 31.740200 2.500000
v 47.158199 21.245100 2.500000
v 51.580101 24.556601 2.500000
v 18.579100 24.317400 -2.500000
v 42.921902 18.073200 -2.500000
v 18.579100 24.317400 2.500000
v 42.921902 18.073200 2.500000
v 18.597700 18.120100 -2.500000
v 35.153301 12.260700 -2.500000
v 38.907200 15.068400 -2.500000
v 18.597700 18.120100 2.500000
v 35.153301 12.260700 2.500000
v 38.907200 15.068400 2.500000
v 18.621099 13.045900 -2.500000
v 31.695299 9.676760 -2.500000
v 18.621099 13.045900 2.500000
v 31.695299 9.676760 2.500000
v 18.649401 8.990230 -2.500000
v 28.571301 7.343750 -2.500000
v 18.649401 8.990230 2.500000
v 28.571301 7.343750 2.500000
v 18.680700 5.846680 -2.500000
v 25.819300 5.290040 -2.500000
v 18.680700 5.846680 2.500000
v 25.819300 5.290040 2.500000
v 18.717800 3.513670 -2.500000
v 21.574200 2.132810 -2.500000
v 23.473600 3.543950 -2.500000
v 18.717800 3.513670 2.500000
v 21.574200 2.132810 2.500000
v 23.473600 3.543950 2.500000
v 18.760700 1.887700 -2.500000
v 18.760700 1.887700 2.500000
v 18.810499 0.861328 -2.500000
v 20.159201 1.086910 -2.500000
v 18.810499 0.861328 2.500000
v 20.159201 1.086910 2.500000
v 18.864300 0.332031 -2.500000
v 19.263700 0.431641 -2.500000
v 18.864300 0.332031 2.500000
v 19.263700 0.431641 2.500000
v 18.922899 0.194336 -2.500000
v 18.925800 0.194336 -2.500000
v 19.018600 0.228516 -2.500000
v 18.922899 0.194336 2.500000
v 18.925800 0.194336 2.500000
v 19.018600 0.228516 2.500000
v 44.792999 230.011002 2.500000
v 44.792999 230.011002 -2.500000
v 106.001999 230.011002 2.500000
v 62.793900 189.345001 -2.500000
v 63.522499 189.350998 -2.500000
v 65.706100 189.369995 -2.500000
v 68.724602 189.401993 -2.500000
v 71.489304 189.438995 -2.500000
v 73.103500 189.464996 -2.500000
v 73.642601 189.477997 -2.500000
v 77.849602 189.529999 -2.500000
v 106.001999 230.011002 -2.500000
v 62.793900 189.345001 2.500000
v 63.522499 189.350998 2.500000
v 65.706100 189.369995 2.500000
v 68.724602 189.401993 2.500000
v 71.489304 189.438995 2.500000
v 73.103500 189.464996 2.500000
v 73.642601 189.477997 2.500000
v 77.849602 189.529999 2.500000
v 68.403297 96.581100 -2.500000
v 70.367203 38.641602 -2.500000
v 89.132797 52.729500 -2.500000
v 75.154297 42.234402 -2.500000
v 79.901398 45.797901 -2.500000
v 84.574203 49.304699 -2.500000
v 70.367203 38.641602 2.500000
v 68.403297 96.581100 2.500000
v 89.132797 52.729500 2.500000
v 75.154297 42.234402 2.500000
v 79.901398 45.797901 2.500000
v 84.574203 49.304699 2.500000
v 80.679703 105.789001 -2.500000
v 101.757004 62.218800 -2.500000
v 93.541000 56.040001 -2.500000
v 97.761703 59.214802 -2.500000
v 80.679703 105.789001 2.500000
v 101.757004 62.218800 2.500000
v 93.541000 56.040001 2.500000
v 97.761703 59.214802 2.500000
v 79.278297 188.313004 2.500000
v 79.278297 188.313004 -2.500000
v 112.139000 225.328995 -2.500000
v 112.139000 225.328995 2.500000
v 80.706100 187.095993 2.500000
v 80.706100 187.095993 -2.500000
v 80.706100 146.429001 -2.500000
v 118.277000 79.489304 -2.500000
v 105.490997 65.028297 -2.500000
v 108.926003 67.613297 -2.500000
v 80.706100 146.429001 2.500000
v 118.277000 79.489304 2.500000
v 105.490997 65.028297 2.500000
v 108.926003 67.613297 2.500000
v 118.277000 220.671005 -2.500000
v 118.277000 220.671005 2.500000
v 112.024002 69.947304 -2.500000
v 112.024002 69.947304 2.500000
v 114.747002 72.003899 -2.500000
v 114.747002 72.003899 2.500000
v 117.058998 73.750999 -2.500000
v 117.058998 73.750999 2.500000
v 118.922997 75.164101 -2.500000
v 118.922997 75.164101 2.500000
v 119.863998 78.352501 2.500000
v 119.863998 78.352501 -2.500000
v 120.301003 76.211899 -2.500000
v 120.301003 76.211899 2.500000
v 120.018997 78.245102 2.500000
v 120.018997 78.245102 -2.500000
v 120.481003 77.913101 2.500000
v 120.481003 77.913101 -2.500000
v 121.155998 76.869102 -2.500000
v 120.985001 77.532204 -2.500000
v 120.985001 77.532204 2.500000
v 121.155998 76.869102 2.500000
v 121.327003 77.250999 2.500000
v 121.327003 77.250999 -2.500000
v 121.445000 77.055702 -2.500000
v 121.445000 77.055702 2.500000
v 121.452003 77.143600 2.500000
v 121.452003 77.108398 -2.500000
v 121.452003 77.143600 -2.500000
v 121.452003 77.108398 2.500000
vn -1.0000 -0.0000 -0.0000
vn -0.5175 -0.8557 -0.0000
vn -0.0000 -0.0000 -1.0000
vn -0.0000 -0.0000 1.0000
vn -0.6650 0.7468 -0.0000
vn -0.6649 0.7469 -0.0000
vn -0.6500 0.7599 -0.0000
vn -0.6501 0.7599 -0.0000
vn -0.6077 -0.7942 -0.0000
vn -0.6179 0.7863 -0.0000
vn -0.5960 0.8030 -0.0000
vn -0.5863 0.8101 -0.0000
vn -0.5864 0.8100 -0.0000
vn -0.5911 0.8066 -0.0000
vn -0.6048 -0.7964 -0.0000
vn -1.0000 -0.0025 -0.0000
vn 0.0027 1.0000 -0.0000
vn -1.0000 -0.0021 -0.0000
vn -0.6032 -0.7976 -0.0000
vn -0.6020 -0.7985 -0.0000
vn -0.6016 -0.7988 -0.0000
vn -0.6010 -0.7992 -0.0000
vn -0.6004 -0.7997 -0.0000
vn -0.6003 -0.7997 -0.0000
vn -0.6000 -0.8000 -0.0000
vn 0.0041 1.0000 -0.0000
vn -0.5994 -0.8005 -0.0000
vn -0.5991 -0.8007 -0.0000
vn -0.5982 -0.8014 -0.0000
vn -0.5977 -0.8017 -0.0000
vn -0.5955 -0.8034 -0.0000
vn -0.5915 -0.8063 -0.0000
vn -0.6141 -0.7893 -0.0000
vn -0.6141 -0.7892 -0.0000
vn -0.3395 -0.9406 -0.0000
vn -0.3393 -0.9407 -0.0000
vn 0.9962 -0.0871 -0.0000
vn 0.9995 -0.0303 -0.0000
vn 0.9999 -0.0160 -0.0000
vn 0.9999 -0.0132 -0.0000
vn 1.0000 -0.0083 -0.0000
vn 1.0000 -0.0066 -0.0000
vn 1.0000 -0.0039 -0.0000
vn 1.0000 -0.0032 -0.0000
vn 1.0000 -0.0027 -0.0000
vn -0.9612 -0.2758 -0.0000
vn 0.9619 0.2734 -0.0000
vn -0.9611 -0.2763 -0.0000
vn -0.9606 -0.2780 -0.0000
vn 0.9615 0.2750 -0.0000
vn 0.9619 0.2735 -0.0000
vn 0.9616 0.2744 -0.0000
vn -0.9601 -0.2796 -0.0000
vn -0.9601 -0.2797 -0.0000
vn 0.9611 0.2762 -0.0000
vn -0.9594 -0.2822 -0.0000
vn -0.9593 -0.2822 -0.0000
vn 0.9606 0.2781 -0.0000
vn -0.9589 -0.2836 -0.0000
vn 0.9599 0.2802 -0.0000
vn -0.9573 -0.2890 -0.0000
vn 0.9586 0.2849 -0.0000
vn -0.9557 -0.2942 -0.0000
vn -0.9557 -0.2943 -0.0000
vn 0.9560 0.2934 -0.0000
vn 0.9560 0.2935 -0.0000
vn 0.9668 0.2556 -0.0000
vn 0.9668 0.2557 -0.0000
vn -0.9668 -0.2555 -0.0000
vn -0.0000 1.0000 -0.0000
vn -0.0000 -1.0000 -0.0000
vn -0.9660 0.2584 -0.0000
vn -0.9660 0.2585 -0.0000
vn 0.9661 -0.2583 -0.0000
vn 0.9661 -0.2582 -0.0000
vn -0.9557 0.2944 -0.0000
vn 0.9555 -0.2950 -0.0000
vn 0.9555 -0.2951 -0.0000
vn -0.9585 0.2853 -0.0000
vn 0.9577 -0.2877 -0.0000
vn -0.9599 0.2804 -0.0000
vn 0.9588 -0.2841 -0.0000
vn -0.9604 0.2785 -0.0000
vn 0.9599 -0.2802 -0.0000
vn -0.9611 0.2762 -0.0000
vn 0.9602 -0.2793 -0.0000
vn 0.9602 -0.2792 -0.0000
vn -0.9614 0.2752 -0.0000
vn -0.9614 0.2753 -0.0000
vn 0.9607 -0.2775 -0.0000
vn -0.9618 0.2739 -0.0000
vn 0.9612 -0.2757 -0.0000
vn -0.9611 0.2763 -0.0000
vn -0.9617 0.2742 -0.0000
vn -0.9616 0.2743 -0.0000
vn -0.9616 0.2744 -0.0000
vn 0.9616 -0.2746 -0.0000
vn 0.9613 -0.2753 -0.0000
vn -0.9617 0.2740 -0.0000
vn -0.9615 0.2748 -0.0000
vn -0.9616 0.2745 -0.0000
vn -0.9614 0.2751 -0.0000
vn -0.9576 0.2880 -0.0000
vn -0.9574 0.2887 -0.0000
vn -0.9564 0.2922 -0.0000
vn -0.9564 0.2921 -0.0000
vn -1.0000 -0.0091 -0.0000
vn -1.0000 -0.0086 -0.0000
vn -1.0000 -0.0073 -0.0000
vn -1.0000 -0.0059 -0.0000
vn -1.0000 -0.0056 -0.0000
vn -1.0000 -0.0036 -0.0000
vn -1.0000 -0.0030 -0.0000
vn -1.0000 -0.0012 -0.0000
vn -0.6026 -0.7981 -0.0000
vn -0.6014 -0.7989 -0.0000
vn -0.6015 -0.7989 -0.0000
vn -0.6010 -0.7993 -0.0000
vn -0.5989 -0.8008 -0.0000
vn 0.0009 1.0000 -0.0000
vn -0.5988 -0.8009 -0.0000
vn 0.0026 1.0000 -0.0000
vn -0.5961 -0.8029 -0.0000
vn -0.5960 -0.8030 -0.0000
vn -0.5914 -0.8064 -0.0000
vn -0.5913 -0.8064 -0.0000
vn -0.5896 -0.8077 -0.0000
vn -0.3379 -0.9412 -0.0000
vn -0.3386 -0.9409 -0.0000
vn 0.9947 -0.1025 -0.0000
vn 0.9994 -0.0349 -0.0000
vn 0.9994 -0.0348 -0.0000
vn 0.9999 -0.0173 -0.0000
vn 0.9999 -0.0172 -0.0000
vn 0.9999 -0.0106 -0.0000
vn 1.0000 -0.0084 -0.0000
vn 1.0000 -0.0049 -0.0000
vn 1.0000 -0.0041 -0.0000
vn 1.0000 -0.0035 -0.0000
vn 1.0000 -0.0020 -0.0000
vn 1.0000 -0.0018 -0.0000
vn 1.0000 -0.0013 -0.0000
vn 1.0000 -0.0012 -0.0000
vn 1.0000 -0.0011 -0.0000
vn 1.0000 -0.0006 -0.0000
vn 1.0000 -0.0007 -0.0000
vn 1.0000 -0.0003 -0.0000
vn 1.0000 -0.0002 -0.0000
vn 1.0000 -0.0000 -0.0000
vn 0.5963 -0.8027 -0.0000
vn 0.0045 1.0000 -0.0000
vn 0.0070 1.0000 -0.0000
vn 0.5981 -0.8014 -0.0000
vn 0.6013 -0.7990 -0.0000
vn 0.6013 -0.7991 -0.0000
vn 0.0107 0.9999 -0.0000
vn 0.6068 -0.7948 -0.0000
vn 0.0160 0.9999 -0.0000
vn 0.6162 -0.7876 -0.0000
vn 0.0289 0.9996 -0.0000
vn 0.5491 -0.8357 -0.0000
vn 0.0670 0.9978 -0.0000
vn -1.0000 -0.0004 -0.0000
vn -0.6028 0.7979 -0.0000
vn -1.0000 -0.0003 -0.0000
vn -1.0000 -0.0011 -0.0000
vn -1.0000 -0.0014 -0.0000
vn -1.0000 -0.0020 -0.0000
vn -1.0000 -0.0031 -0.0000
vn -1.0000 -0.0037 -0.0000
vn -1.0000 -0.0050 -0.0000
vn -1.0000 -0.0069 -0.0000
vn -0.9999 -0.0108 -0.0000
vn -0.9999 -0.0116 -0.0000
vn -0.5955 -0.8033 -0.0000
vn -0.6066 0.7950 -0.0000
vn -0.6065 0.7950 -0.0000
vn -0.5954 -0.8035 -0.0000
vn -0.5944 -0.8042 -0.0000
vn -0.5935 -0.8049 -0.0000
vn -0.5918 -0.8061 -0.0000
vn -0.5904 -0.8071 -0.0000
vn -0.5873 -0.8094 -0.0000
vn -0.5810 -0.8139 -0.0000
vn -0.5809 -0.8139 -0.0000
vn -0.6595 -0.7517 -0.0000
vn -0.6594 -0.7518 -0.0000
vn 0.6903 -0.7236 -0.0000
vn 0.5954 -0.8034 -0.0000
vn 1.0000 0.0007 -0.0000
vn 0.5930 -0.8052 -0.0000
vn 1.0000 0.0016 -0.0000
vn 1.0000 0.0015 -0.0000
vn 1.0000 0.0028 -0.0000
vn 1.0000 0.0035 -0.0000
vn 1.0000 0.0036 -0.0000
vn 1.0000 0.0045 -0.0000
vn 1.0000 0.0056 -0.0000
vn 1.0000 0.0069 -0.0000
vn 1.0000 0.0091 -0.0000
vn 0.9999 0.0112 -0.0000
vn 0.9999 0.0130 -0.0000
vn -0.5935 0.8048 -0.0000
vn 0.5988 -0.8009 -0.0000
vn 0.5938 -0.8046 -0.0000
vn 0.0028 -1.0000 -0.0000
vn 0.6002 -0.7998 -0.0000
vn 0.6011 -0.7992 -0.0000
vn 0.6021 -0.7984 -0.0000
vn 0.6024 -0.7982 -0.0000
vn -0.5799 -0.8147 -0.0000
vn -0.5798 -0.8147 -0.0000
vn -0.5958 -0.8031 -0.0000
vn 0.6030 -0.7977 -0.0000
vn 0.6032 -0.7976 -0.0000
vn 0.6031 -0.7977 -0.0000
vn 0.5989 0.8008 -0.0000
vn 0.6006 0.7996 -0.0000
vn -1.0000 0.0004 -0.0000
vn -0.5995 0.8004 -0.0000
vn -0.5972 0.8021 -0.0000
vn -0.5987 -0.8010 -0.0000
vn -0.5984 -0.8012 -0.0000
vn 0.6005 0.7996 -0.0000
vn 0.5974 -0.8019 -0.0000
vn -0.5974 -0.8020 -0.0000
vn 0.0001 -0.0000 1.0000
vn 0.5962 -0.8028 -0.0000
vn 0.5377 -0.8431 -0.0000
vn 0.4409 -0.8976 -0.0000
vn 0.2023 -0.9793 -0.0000
vn 0.2022 -0.9793 -0.0000
vn 0.2883 -0.9575 -0.0000
vn 0.2882 -0.9576 -0.0000
vn 0.0547 -0.9985 -0.0000
vn 0.0296 -0.9996 -0.0000
vn 0.0160 -0.9999 -0.0000
vn 0.0096 -1.0000 -0.0000
vn 0.0046 -1.0000 -0.0000
vn 0.5992 0.8006 -0.0000
vn -0.5943 -0.8042 -0.0000
vn 0.5993 0.8005 -0.0000
vn 0.0030 -1.0000 -0.0000
vn 0.5987 0.8010 -0.0000
vn 0.5991 0.8007 -0.0000
vn 0.5991 0.8006 -0.0000
vn -0.5921 -0.8058 -0.0000
vn 0.5975 0.8019 -0.0000
vn -0.5882 -0.8087 -0.0000
vn -0.6349 -0.7726 -0.0000
vn 0.5971 0.8022 -0.0000
vn -0.6261 -0.7797 -0.0000
vn 0.5929 0.8053 -0.0000
vn 0.5924 0.8056 -0.0000
vn 0.5158 0.8567 -0.0000
vn 0.4511 0.8925 -0.0000
vn 0.4423 0.8968 -0.0000
vn -0.7862 0.6180 -0.0000
vn -0.7861 0.6182 -0.0000
vn -0.5793 -0.8151 -0.0000
vn -0.9847 0.1743 -0.0000
vn -0.9847 0.1744 -0.0000
vn -0.9967 0.0811 -0.0000
vn -0.9967 0.0812 -0.0000
vn -0.9990 0.0456 -0.0000
vn -0.9995 0.0301 -0.0000
vn -0.9995 0.0302 -0.0000
vn -0.9998 0.0178 -0.0000
vn -0.9999 0.0136 -0.0000
vn -0.9999 0.0135 -0.0000
vn -1.0000 0.0090 -0.0000
vn -1.0000 0.0061 -0.0000
vn -1.0000 0.0040 -0.0000
vn -1.0000 0.0030 -0.0000
vn -1.0000 0.0017 -0.0000
vn -1.0000 0.0011 -0.0000
vn -1.0000 0.0007 -0.0000
vn -1.0000 0.0005 -0.0000
vn -1.0000 0.0002 -0.0000
vn -0.5804 -0.8144 -0.0000
vn -0.5803 -0.8144 -0.0000
vn 0.0726 -0.9974 -0.0000
vn 0.6315 -0.7753 -0.0000
vn 0.6315 -0.7754 -0.0000
vn 0.5719 -0.8203 -0.0000
vn 0.5720 -0.8203 -0.0000
vn 0.5847 -0.8113 -0.0000
vn 0.5902 -0.8073 -0.0000
vn 0.5939 -0.8045 -0.0000
vn 0.5961 -0.8029 -0.0000
vn 0.5983 -0.8013 -0.0000
vn 0.5995 -0.8004 -0.0000
vn 0.6001 -0.7999 -0.0000
vn 0.6010 -0.7993 -0.0000
vn 0.6005 0.7997 -0.0000
vn 0.6044 0.7967 -0.0000
vn -0.8985 -0.4390 -0.0000
vn -0.7668 0.6419 -0.0000
vn -0.6491 -0.7607 -0.0000
vn -0.1745 0.9847 -0.0000
vn -0.6080 -0.7939 -0.0000
vn -0.0796 0.9968 -0.0000
vn -0.6047 -0.7965 -0.0000
vn -0.0451 0.9990 -0.0000
vn -0.0280 0.9996 -0.0000
vn -0.6011 -0.7992 -0.0000
vn -0.0181 0.9998 -0.0000
vn -0.0124 0.9999 -0.0000
vn -0.5997 -0.8002 -0.0000
vn -0.0085 1.0000 -0.0000
vn -0.5979 -0.8016 -0.0000
vn -0.0058 1.0000 -0.0000
vn -0.5992 -0.8006 -0.0000
vn -0.0038 1.0000 -0.0000
vn -0.0028 1.0000 -0.0000
vn -1.0000 -0.0002 -0.0000
vn -1.0000 -0.0010 -0.0000
vn -1.0000 -0.0015 -0.0000
vn -1.0000 -0.0046 -0.0000
vn -1.0000 -0.0070 -0.0000
vn -1.0000 -0.0100 -0.0000
vn -0.9999 -0.0159 -0.0000
vn -0.9997 -0.0264 -0.0000
vn -0.9988 -0.0485 -0.0000
vn -0.9949 -0.1011 -0.0000
vn -0.9201 -0.3916 -0.0000
vn 0.3456 -0.9384 -0.0000
vn 0.6381 -0.7700 -0.0000
vn 0.5905 -0.8070 -0.0000
vn 0.5944 -0.8042 -0.0000
vn -0.0018 1.0000 -0.0000
vn 0.5964 -0.8027 -0.0000
vn 0.5971 -0.8022 -0.0000
vn -0.0009 1.0000 -0.0000
vn 0.5984 -0.8012 -0.0000
vn -0.0006 1.0000 -0.0000
vn 0.5986 -0.8011 -0.0000
vn 0.5989 -0.8008 -0.0000
vn -0.0004 1.0000 -0.0000
vn 0.5992 -0.8006 -0.0000
vn 0.5994 -0.8005 -0.0000
vn 0.5994 -0.8004 -0.0000
vn 0.5996 -0.8003 -0.0000
vn -0.5980 0.8015 -0.0000
vn 0.0119 -0.9999 -0.0000
vn 0.5998 -0.8001 -0.0000
vn 0.5999 -0.8001 -0.0000
vn 0.0082 -1.0000 -0.0000
vn 0.0087 -1.0000 -0.0000
vn 0.6001 -0.8000 -0.0000
vn 0.0106 -0.9999 -0.0000
vn -0.6000 0.8000 -0.0000
vn 0.0134 -0.9999 -0.0000
vn 0.6003 -0.7998 -0.0000
vn 0.0161 -0.9999 -0.0000
vn 0.0241 -0.9997 -0.0000
vn 0.0124 -0.9999 -0.0000
vn 0.6003 -0.7997 -0.0000
vn -0.6485 -0.7613 -0.0000
vn -0.6487 -0.7611 -0.0000
vn -1.0000 0.0006 -0.0000
vn 0.6007 -0.7995 -0.0000
vn 0.6005 -0.7996 -0.0000
vn 0.6012 -0.7991 -0.0000
vn 0.6066 0.7950 -0.0000
vn 0.6017 -0.7987 -0.0000
vn 0.6027 -0.7980 -0.0000
vn 0.6045 0.7966 -0.0000
vn 0.6029 -0.7978 -0.0000
vn 0.6041 -0.7969 -0.0000
vn 0.5823 0.8129 -0.0000
vn 0.5823 0.8130 -0.0000
vn 0.6053 -0.7960 -0.0000
vn 0.5695 0.8220 -0.0000
vn 0.5696 0.8219 -0.0000
vn 0.5836 0.8121 -0.0000
vn 0.6094 -0.7928 -0.0000
vn 0.6029 0.7978 -0.0000
vn 0.6351 0.7724 -0.0000
vn 0.5424 -0.8401 -0.0000
vn 0.6517 0.7585 -0.0000
vn 0.9913 -0.1318 -0.0000
s 0
f 1//1 2//1 3//1
f 4//2 2//2 1//2
f 1//1 3//1 5//1
f 1//3 5//3 6//3
f 4//3 1//3 6//3
f 7//4 3//4 2//4
f 7//4 2//4 8//4
f 4//2 8//2 2//2
f 5//5 3//5 7//5
f 5//6 7//6 6//6
f 6//7 7//7 9//7
f 6//3 10//3 4//3
f 6//8 9//8 10//8
f 8//4 9//4 7//4
f 11//9 8//9 4//9
f 10//3 12//3 4//3
f 12//3 11//3 4//3
f 8//4 13//4 9//4
f 8//4 14//4 13//4
f 11//9 14//9 8//9
f 10//10 9//10 13//10
f 10//10 13//10 12//10
f 12//11 13//11 15//11
f 12//11 15//11 16//11
f 16//3 11//3 12//3
f 13//4 14//4 15//4
f 16//12 15//12 17//12
f 16//13 17//13 18//13
f 18//3 11//3 16//3
f 15//4 14//4 17//4
f 18//14 17//14 19//14
f 18//3 20//3 11//3
f 18//14 19//14 20//14
f 14//4 19//4 17//4
f 21//15 14//15 11//15
f 11//3 20//3 21//3
f 22//4 19//4 14//4
f 21//15 22//15 14//15
f 23//16 24//16 25//16
f 25//17 24//17 26//17
f 27//3 23//3 25//3
f 25//17 26//17 28//17
f 28//3 27//3 25//3
f 23//16 29//16 24//16
f 24//4 29//4 30//4
f 24//4 30//4 26//4
f 20//18 29//18 23//18
f 20//3 23//3 31//3
f 31//3 23//3 32//3
f 33//3 23//3 27//3
f 34//3 23//3 33//3
f 35//3 23//3 34//3
f 36//3 23//3 35//3
f 23//3 36//3 32//3
f 20//18 19//18 29//18
f 37//4 29//4 19//4
f 38//4 29//4 37//4
f 30//4 29//4 39//4
f 39//4 29//4 40//4
f 40//4 29//4 41//4
f 41//4 29//4 42//4
f 38//4 42//4 29//4
f 21//3 20//3 43//3
f 43//3 20//3 44//3
f 20//3 45//3 44//3
f 20//3 31//3 45//3
f 46//4 19//4 22//4
f 47//4 19//4 46//4
f 47//4 48//4 19//4
f 48//4 37//4 19//4
f 43//19 22//19 21//19
f 43//19 46//19 22//19
f 44//20 46//20 43//20
f 44//20 47//20 46//20
f 49//21 47//21 44//21
f 49//3 44//3 45//3
f 49//21 50//21 47//21
f 48//4 47//4 50//4
f 51//22 50//22 49//22
f 45//3 51//3 49//3
f 51//22 52//22 50//22
f 50//4 52//4 48//4
f 53//23 52//23 51//23
f 45//3 53//3 51//3
f 53//24 54//24 52//24
f 52//4 54//4 48//4
f 55//25 54//25 53//25
f 53//3 56//3 55//3
f 56//3 53//3 45//3
f 55//25 57//25 54//25
f 57//4 58//4 54//4
f 48//4 54//4 58//4
f 28//26 26//26 59//26
f 28//26 59//26 60//26
f 61//3 28//3 60//3
f 61//3 62//3 28//3
f 62//3 63//3 28//3
f 63//3 27//3 28//3
f 59//4 26//4 64//4
f 26//4 65//4 64//4
f 26//4 66//4 65//4
f 26//4 30//4 66//4
f 67//27 57//27 55//27
f 68//3 67//3 55//3
f 68//3 55//3 56//3
f 67//27 69//27 57//27
f 57//4 69//4 70//4
f 58//4 57//4 70//4
f 71//28 69//28 67//28
f 67//3 72//3 71//3
f 68//3 72//3 67//3
f 71//28 73//28 69//28
f 73//4 74//4 69//4
f 69//4 74//4 70//4
f 75//29 73//29 71//29
f 71//3 76//3 75//3
f 72//3 76//3 71//3
f 75//29 77//29 73//29
f 77//4 78//4 73//4
f 73//4 78//4 74//4
f 79//30 77//30 75//30
f 75//3 80//3 79//3
f 76//3 80//3 75//3
f 79//30 81//30 77//30
f 81//4 82//4 77//4
f 77//4 82//4 78//4
f 83//31 81//31 79//31
f 83//3 79//3 80//3
f 83//31 84//31 81//31
f 82//4 81//4 84//4
f 85//32 84//32 83//32
f 85//3 83//3 86//3
f 83//3 80//3 86//3
f 85//32 87//32 84//32
f 88//4 84//4 87//4
f 88//4 82//4 84//4
f 89//33 87//33 85//33
f 90//3 89//3 85//3
f 90//3 85//3 86//3
f 89//34 91//34 87//34
f 87//4 91//4 92//4
f 88//4 87//4 92//4
f 93//35 91//35 89//35
f 93//3 89//3 90//3
f 93//36 94//36 91//36
f 92//4 91//4 94//4
f 90//37 94//37 93//37
f 90//37 92//37 94//37
f 86//38 92//38 90//38
f 86//38 88//38 92//38
f 80//39 88//39 86//39
f 80//39 82//39 88//39
f 76//40 82//40 80//40
f 76//40 78//40 82//40
f 72//41 78//41 76//41
f 72//41 74//41 78//41
f 68//42 74//42 72//42
f 68//42 70//42 74//42
f 56//43 70//43 68//43
f 56//43 58//43 70//43
f 45//44 58//44 56//44
f 45//44 48//44 58//44
f 31//45 48//45 45//45
f 31//45 37//45 48//45
f 95//46 37//46 31//46
f 31//3 96//3 95//3
f 32//3 97//3 31//3
f 31//3 97//3 96//3
f 95//46 98//46 37//46
f 98//4 99//4 37//4
f 37//4 100//4 38//4
f 99//4 100//4 37//4
f 60//47 59//47 64//47
f 60//47 64//47 61//47
f 101//48 98//48 95//48
f 101//3 95//3 102//3
f 102//3 95//3 96//3
f 101//48 103//48 98//48
f 104//4 98//4 103//4
f 99//4 98//4 104//4
f 105//49 103//49 101//49
f 106//3 105//3 101//3
f 101//3 102//3 106//3
f 105//49 107//49 103//49
f 103//4 107//4 108//4
f 108//4 104//4 103//4
f 61//50 64//50 65//50
f 61//50 65//50 62//50
f 62//51 65//51 66//51
f 62//51 66//51 63//51
f 109//49 107//49 105//49
f 110//3 109//3 105//3
f 105//3 106//3 110//3
f 109//49 111//49 107//49
f 107//4 111//4 112//4
f 112//4 108//4 107//4
f 63//52 66//52 30//52
f 63//52 30//52 27//52
f 113//53 111//53 109//53
f 114//3 113//3 109//3
f 109//3 110//3 114//3
f 113//54 115//54 111//54
f 111//4 115//4 116//4
f 116//4 112//4 111//4
f 27//55 30//55 39//55
f 27//55 39//55 33//55
f 117//56 115//56 113//56
f 117//3 113//3 118//3
f 113//3 114//3 118//3
f 117//57 119//57 115//57
f 120//4 115//4 119//4
f 120//4 116//4 115//4
f 33//58 39//58 40//58
f 33//58 40//58 34//58
f 121//59 119//59 117//59
f 121//3 117//3 122//3
f 117//3 118//3 122//3
f 121//59 123//59 119//59
f 124//4 119//4 123//4
f 124//4 120//4 119//4
f 34//60 40//60 41//60
f 34//60 41//60 35//60
f 125//61 123//61 121//61
f 126//3 125//3 121//3
f 121//3 122//3 126//3
f 125//61 127//61 123//61
f 123//4 127//4 128//4
f 128//4 124//4 123//4
f 35//62 41//62 42//62
f 35//62 42//62 36//62
f 129//63 127//63 125//63
f 129//3 125//3 130//3
f 130//3 125//3 126//3
f 129//64 131//64 127//64
f 132//4 127//4 131//4
f 128//4 127//4 132//4
f 36//65 42//65 133//65
f 36//66 133//66 134//66
f 134//3 32//3 36//3
f 42//4 38//4 133//4
f 134//67 133//67 38//67
f 134//68 38//68 32//68
f 135//69 131//69 129//69
f 129//3 136//3 135//3
f 137//3 136//3 129//3
f 137//3 129//3 130//3
f 135//69 138//69 131//69
f 138//4 139//4 131//4
f 131//4 139//4 140//4
f 132//4 131//4 140//4
f 32//70 38//70 100//70
f 32//70 100//70 97//70
f 136//71 138//71 135//71
f 136//71 139//71 138//71
f 97//72 100//72 141//72
f 97//73 141//73 142//73
f 97//3 142//3 143//3
f 144//3 97//3 143//3
f 96//3 97//3 145//3
f 144//3 145//3 97//3
f 146//4 141//4 100//4
f 146//4 100//4 147//4
f 148//4 100//4 99//4
f 100//4 148//4 147//4
f 137//74 139//74 136//74
f 137//75 140//75 139//75
f 142//76 141//76 146//76
f 142//76 146//76 143//76
f 130//77 140//77 137//77
f 130//78 132//78 140//78
f 143//79 146//79 149//79
f 143//79 149//79 150//79
f 144//3 143//3 150//3
f 149//4 146//4 147//4
f 126//80 132//80 130//80
f 126//80 128//80 132//80
f 150//81 149//81 151//81
f 150//81 151//81 152//81
f 144//3 150//3 152//3
f 151//4 149//4 147//4
f 122//82 128//82 126//82
f 122//82 124//82 128//82
f 152//83 151//83 153//83
f 152//83 153//83 154//83
f 144//3 152//3 154//3
f 153//4 151//4 147//4
f 118//84 124//84 122//84
f 118//84 120//84 124//84
f 154//85 153//85 155//85
f 154//85 155//85 156//85
f 144//3 154//3 156//3
f 155//4 153//4 147//4
f 114//86 120//86 118//86
f 114//87 116//87 120//87
f 156//88 155//88 157//88
f 156//89 157//89 158//89
f 144//3 156//3 158//3
f 157//4 155//4 147//4
f 110//90 116//90 114//90
f 110//90 112//90 116//90
f 158//91 157//91 159//91
f 158//91 159//91 160//91
f 144//3 158//3 160//3
f 159//4 157//4 147//4
f 106//92 112//92 110//92
f 106//92 108//92 112//92
f 160//93 159//93 161//93
f 160//93 161//93 162//93
f 144//3 160//3 162//3
f 161//4 159//4 147//4
f 162//94 161//94 163//94
f 162//95 163//95 164//95
f 144//3 162//3 164//3
f 163//4 161//4 147//4
f 164//96 163//96 165//96
f 164//96 165//96 166//96
f 144//3 164//3 166//3
f 165//4 163//4 147//4
f 102//97 108//97 106//97
f 102//97 104//97 108//97
f 96//98 104//98 102//98
f 96//98 99//98 104//98
f 166//88 165//88 167//88
f 166//88 167//88 168//88
f 144//3 166//3 168//3
f 167//4 165//4 147//4
f 168//99 167//99 169//99
f 168//99 169//99 170//99
f 144//3 168//3 170//3
f 169//4 167//4 147//4
f 170//100 169//100 171//100
f 170//100 171//100 172//100
f 170//3 172//3 173//3
f 144//3 170//3 173//3
f 174//4 171//4 169//4
f 174//4 169//4 147//4
f 172//93 171//93 175//93
f 172//93 175//93 176//93
f 172//3 176//3 173//3
f 174//4 175//4 171//4
f 176//101 175//101 177//101
f 176//101 177//101 178//101
f 176//3 178//3 173//3
f 174//4 177//4 175//4
f 178//102 177//102 179//102
f 178//102 179//102 180//102
f 178//3 180//3 173//3
f 174//4 179//4 177//4
f 180//101 179//101 181//101
f 180//101 181//101 182//101
f 180//3 182//3 173//3
f 174//4 181//4 179//4
f 182//103 181//103 183//103
f 182//104 183//104 184//104
f 173//3 182//3 184//3
f 183//4 181//4 174//4
f 184//105 183//105 185//105
f 184//106 185//106 186//106
f 184//3 186//3 173//3
f 174//4 185//4 183//4
f 186//70 185//70 174//70
f 186//70 174//70 173//70
f 187//107 99//107 96//107
f 145//3 187//3 96//3
f 187//107 188//107 99//107
f 99//4 188//4 148//4
f 189//108 188//108 187//108
f 189//3 187//3 190//3
f 190//3 187//3 145//3
f 189//108 191//108 188//108
f 192//4 188//4 191//4
f 148//4 188//4 192//4
f 193//109 191//109 189//109
f 193//3 189//3 190//3
f 193//109 194//109 191//109
f 192//4 191//4 194//4
f 195//110 194//110 193//110
f 196//3 195//3 193//3
f 196//3 193//3 190//3
f 195//110 197//110 194//110
f 194//4 197//4 198//4
f 192//4 194//4 198//4
f 199//111 197//111 195//111
f 195//3 200//3 199//3
f 200//3 195//3 196//3
f 199//111 201//111 197//111
f 201//4 202//4 197//4
f 198//4 197//4 202//4
f 203//112 201//112 199//112
f 199//3 200//3 203//3
f 203//112 204//112 201//112
f 204//4 202//4 201//4
f 205//113 204//113 203//113
f 206//3 205//3 203//3
f 203//3 200//3 206//3
f 205//113 207//113 204//113
f 204//4 207//4 208//4
f 208//4 202//4 204//4
f 209//114 207//114 205//114
f 205//3 210//3 209//3
f 206//3 210//3 205//3
f 209//114 211//114 207//114
f 211//4 212//4 207//4
f 207//4 212//4 208//4
f 213//115 211//115 209//115
f 213//3 209//3 214//3
f 210//3 214//3 209//3
f 213//115 215//115 211//115
f 216//4 211//4 215//4
f 211//4 216//4 212//4
f 217//116 215//116 213//116
f 218//3 217//3 213//3
f 218//3 213//3 214//3
f 217//116 219//116 215//116
f 215//4 219//4 220//4
f 216//4 215//4 220//4
f 221//117 219//117 217//117
f 222//3 221//3 217//3
f 222//3 217//3 218//3
f 221//117 223//117 219//117
f 219//4 223//4 224//4
f 220//4 219//4 224//4
f 225//118 223//118 221//118
f 222//3 225//3 221//3
f 225//118 226//118 223//118
f 223//4 226//4 224//4
f 227//23 226//23 225//23
f 225//3 228//3 227//3
f 222//3 228//3 225//3
f 227//23 229//23 226//23
f 229//4 230//4 226//4
f 226//4 230//4 224//4
f 231//119 229//119 227//119
f 231//3 227//3 232//3
f 227//3 228//3 232//3
f 231//119 233//119 229//119
f 234//4 229//4 233//4
f 234//4 230//4 229//4
f 173//120 174//120 235//120
f 173//120 235//120 236//120
f 144//3 173//3 236//3
f 235//4 174//4 147//4
f 237//121 233//121 231//121
f 238//3 237//3 231//3
f 238//3 231//3 232//3
f 237//121 239//121 233//121
f 233//4 239//4 240//4
f 234//4 233//4 240//4
f 236//122 235//122 241//122
f 144//3 236//3 242//3
f 236//122 241//122 242//122
f 241//4 235//4 147//4
f 243//123 239//123 237//123
f 244//3 243//3 237//3
f 244//3 237//3 238//3
f 243//124 245//124 239//124
f 239//4 245//4 246//4
f 240//4 239//4 246//4
f 247//125 245//125 243//125
f 243//3 248//3 247//3
f 244//3 248//3 243//3
f 247//126 249//126 245//126
f 249//4 250//4 245//4
f 245//4 250//4 246//4
f 251//127 249//127 247//127
f 251//3 247//3 252//3
f 247//3 248//3 252//3
f 251//127 253//127 249//127
f 254//4 249//4 253//4
f 254//4 250//4 249//4
f 255//128 253//128 251//128
f 255//3 251//3 252//3
f 255//129 256//129 253//129
f 254//4 253//4 256//4
f 252//130 256//130 255//130
f 252//130 254//130 256//130
f 248//131 254//131 252//131
f 248//132 250//132 254//132
f 244//133 250//133 248//133
f 244//134 246//134 250//134
f 238//135 246//135 244//135
f 238//135 240//135 246//135
f 232//136 240//136 238//136
f 232//136 234//136 240//136
f 228//137 234//137 232//137
f 228//137 230//137 234//137
f 222//138 230//138 228//138
f 222//138 224//138 230//138
f 218//139 224//139 222//139
f 218//139 220//139 224//139
f 214//140 220//140 218//140
f 214//140 216//140 220//140
f 210//141 216//141 214//141
f 210//141 212//141 216//141
f 206//142 212//142 210//142
f 206//143 208//143 212//143
f 200//144 208//144 206//144
f 200//144 202//144 208//144
f 196//145 202//145 200//145
f 196//146 198//146 202//146
f 190//147 198//147 196//147
f 190//148 192//148 198//148
f 145//147 192//147 190//147
f 145//147 148//147 192//147
f 144//149 148//149 145//149
f 144//149 147//149 148//149
f 257//150 147//150 144//150
f 144//3 242//3 257//3
f 258//4 241//4 147//4
f 257//150 258//150 147//150
f 242//151 241//151 259//151
f 242//151 259//151 260//151
f 242//3 260//3 257//3
f 258//4 259//4 241//4
f 260//152 259//152 261//152
f 260//3 262//3 257//3
f 263//3 262//3 260//3
f 260//152 261//152 263//152
f 258//4 264//4 259//4
f 259//4 264//4 261//4
f 262//153 258//153 257//153
f 262//153 264//153 258//153
f 265//154 264//154 262//154
f 263//3 265//3 262//3
f 264//4 266//4 261//4
f 265//155 266//155 264//155
f 263//156 261//156 267//156
f 263//3 268//3 265//3
f 263//156 267//156 268//156
f 266//4 267//4 261//4
f 269//157 266//157 265//157
f 265//3 268//3 269//3
f 270//4 267//4 266//4
f 269//157 270//157 266//157
f 268//158 267//158 271//158
f 268//3 272//3 269//3
f 268//158 271//158 272//158
f 270//4 271//4 267//4
f 273//159 270//159 269//159
f 269//3 272//3 273//3
f 274//4 271//4 270//4
f 273//159 274//159 270//159
f 272//160 271//160 275//160
f 273//3 272//3 276//3
f 272//160 275//160 276//160
f 275//4 271//4 274//4
f 277//161 274//161 273//161
f 273//3 276//3 277//3
f 278//4 275//4 274//4
f 277//161 278//161 274//161
f 276//162 275//162 279//162
f 280//3 277//3 276//3
f 276//162 279//162 280//162
f 275//4 278//4 279//4
f 280//149 278//149 277//149
f 280//149 279//149 278//149
f 281//163 282//163 283//163
f 283//164 282//164 284//164
f 285//3 281//3 283//3
f 283//164 284//164 286//164
f 286//3 285//3 283//3
f 281//163 287//163 282//163
f 282//4 287//4 288//4
f 282//4 288//4 284//4
f 289//165 287//165 281//165
f 290//3 289//3 281//3
f 290//3 281//3 285//3
f 289//165 291//165 287//165
f 287//4 291//4 292//4
f 288//4 287//4 292//4
f 293//166 291//166 289//166
f 294//3 293//3 289//3
f 294//3 289//3 290//3
f 293//166 295//166 291//166
f 291//4 295//4 296//4
f 292//4 291//4 296//4
f 297//167 295//167 293//167
f 298//3 297//3 293//3
f 294//3 299//3 293//3
f 298//3 293//3 299//3
f 297//167 300//167 295//167
f 295//4 300//4 301//4
f 295//4 302//4 296//4
f 302//4 295//4 301//4
f 303//168 300//168 297//168
f 303//3 297//3 304//3
f 305//3 297//3 298//3
f 304//3 297//3 305//3
f 303//168 306//168 300//168
f 307//4 300//4 306//4
f 301//4 300//4 308//4
f 308//4 300//4 307//4
f 309//16 306//16 303//16
f 309//3 303//3 310//3
f 303//3 304//3 311//3
f 310//3 303//3 311//3
f 309//16 312//16 306//16
f 313//4 306//4 312//4
f 314//4 307//4 306//4
f 314//4 306//4 313//4
f 315//169 312//169 309//169
f 309//3 316//3 315//3
f 317//3 309//3 310//3
f 317//3 318//3 309//3
f 318//3 316//3 309//3
f 315//169 319//169 312//169
f 319//4 320//4 312//4
f 313//4 312//4 321//4
f 312//4 322//4 321//4
f 312//4 320//4 322//4
f 323//170 319//170 315//170
f 315//3 324//3 323//3
f 316//3 324//3 315//3
f 323//170 325//170 319//170
f 325//4 326//4 319//4
f 319//4 326//4 320//4
f 327//171 325//171 323//171
f 323//3 324//3 327//3
f 327//171 328//171 325//171
f 328//4 326//4 325//4
f 329//172 328//172 327//172
f 327//3 324//3 329//3
f 329//172 330//172 328//172
f 330//4 326//4 328//4
f 331//173 330//173 329//173
f 329//3 324//3 331//3
f 331//173 332//173 330//173
f 332//4 326//4 330//4
f 333//174 332//174 331//174
f 333//3 331//3 334//3
f 331//3 324//3 334//3
f 333//174 335//174 332//174
f 336//4 332//4 335//4
f 336//4 326//4 332//4
f 334//175 335//175 333//175
f 334//175 336//175 335//175
f 286//176 284//176 337//176
f 286//177 337//177 338//177
f 286//3 338//3 339//3
f 286//3 339//3 285//3
f 340//4 337//4 284//4
f 288//4 340//4 284//4
f 338//70 337//70 341//70
f 342//3 339//3 338//3
f 343//3 342//3 338//3
f 344//3 343//3 338//3
f 338//70 341//70 344//70
f 337//4 340//4 345//4
f 337//4 345//4 346//4
f 337//4 346//4 341//4
f 347//178 336//178 334//178
f 334//3 324//3 347//3
f 347//178 348//178 336//178
f 348//4 326//4 336//4
f 349//179 348//179 347//179
f 347//3 350//3 349//3
f 324//3 350//3 347//3
f 349//179 351//179 348//179
f 351//4 352//4 348//4
f 348//4 352//4 326//4
f 353//180 351//180 349//180
f 354//3 353//3 349//3
f 350//3 354//3 349//3
f 353//180 355//180 351//180
f 351//4 355//4 356//4
f 351//4 356//4 352//4
f 357//181 355//181 353//181
f 358//3 357//3 353//3
f 358//3 353//3 354//3
f 357//181 359//181 355//181
f 355//4 359//4 360//4
f 356//4 355//4 360//4
f 361//182 359//182 357//182
f 358//3 361//3 357//3
f 361//182 362//182 359//182
f 359//4 362//4 360//4
f 363//183 362//183 361//183
f 361//3 364//3 363//3
f 358//3 364//3 361//3
f 363//183 365//183 362//183
f 365//4 366//4 362//4
f 362//4 366//4 360//4
f 367//184 365//184 363//184
f 367//3 363//3 368//3
f 363//3 364//3 368//3
f 367//185 369//185 365//185
f 370//4 365//4 369//4
f 370//4 366//4 365//4
f 371//186 369//186 367//186
f 372//3 371//3 367//3
f 372//3 367//3 368//3
f 371//187 373//187 369//187
f 369//4 373//4 374//4
f 370//4 369//4 374//4
f 372//71 373//71 371//71
f 372//71 374//71 373//71
f 368//188 374//188 372//188
f 368//188 370//188 374//188
f 364//189 370//189 368//189
f 364//189 366//189 370//189
f 285//190 288//190 290//190
f 288//191 285//191 340//191
f 339//191 340//191 285//191
f 292//190 290//190 288//190
f 296//149 294//149 292//149
f 294//190 296//190 299//190
f 290//149 292//149 294//149
f 302//190 299//190 296//190
f 299//192 302//192 298//192
f 301//193 298//193 302//193
f 298//194 301//194 305//194
f 308//194 305//194 301//194
f 305//195 308//195 304//195
f 307//196 304//196 308//196
f 304//197 307//197 311//197
f 314//197 311//197 307//197
f 311//198 314//198 310//198
f 313//198 310//198 314//198
f 310//199 313//199 317//199
f 321//199 317//199 313//199
f 317//200 321//200 318//200
f 322//200 318//200 321//200
f 318//201 322//201 316//201
f 320//201 316//201 322//201
f 316//202 320//202 324//202
f 326//202 324//202 320//202
f 324//203 326//203 375//203
f 324//3 376//3 350//3
f 375//3 377//3 324//3
f 376//3 324//3 378//3
f 378//3 324//3 379//3
f 324//3 377//3 379//3
f 352//4 380//4 326//4
f 381//203 375//203 326//203
f 326//4 382//4 381//4
f 383//4 326//4 380//4
f 384//4 326//4 383//4
f 384//4 382//4 326//4
f 358//204 366//204 364//204
f 358//204 360//204 366//204
f 340//205 339//205 345//205
f 342//205 345//205 339//205
f 345//206 342//206 346//206
f 343//206 346//206 342//206
f 354//207 360//207 358//207
f 354//207 356//207 360//207
f 350//208 356//208 354//208
f 350//208 352//208 356//208
f 346//71 343//71 385//71
f 386//71 385//71 343//71
f 344//3 386//3 343//3
f 346//4 385//4 341//4
f 376//209 352//209 350//209
f 376//209 380//209 352//209
f 375//203 381//203 387//203
f 375//3 387//3 377//3
f 388//203 387//203 381//203
f 382//4 388//4 381//4
f 378//210 380//210 376//210
f 378//210 383//210 380//210
f 385//211 386//211 389//211
f 390//212 389//212 386//212
f 344//3 390//3 386//3
f 385//4 389//4 341//4
f 389//213 390//213 391//213
f 392//213 391//213 390//213
f 393//3 392//3 390//3
f 393//3 390//3 344//3
f 389//4 391//4 394//4
f 341//4 389//4 394//4
f 379//214 383//214 378//214
f 379//214 384//214 383//214
f 387//1 388//1 392//1
f 392//3 395//3 387//3
f 377//3 387//3 395//3
f 391//1 392//1 388//1
f 388//4 396//4 391//4
f 396//4 388//4 382//4
f 393//3 397//3 392//3
f 392//3 397//3 395//3
f 391//4 398//4 394//4
f 396//4 398//4 391//4
f 377//215 384//215 379//215
f 377//215 382//215 384//215
f 395//216 382//216 377//216
f 395//216 396//216 382//216
f 344//217 341//217 394//217
f 344//217 394//217 393//217
f 393//218 394//218 398//218
f 393//218 398//218 397//218
f 397//149 396//149 395//149
f 397//149 398//149 396//149
f 399//1 400//1 401//1
f 402//27 400//27 399//27
f 399//1 401//1 403//1
f 404//3 399//3 403//3
f 402//3 399//3 404//3
f 401//4 400//4 405//4
f 402//27 406//27 400//27
f 405//4 400//4 406//4
f 403//219 401//219 407//219
f 403//219 407//219 408//219
f 409//3 403//3 408//3
f 404//3 403//3 410//3
f 403//3 409//3 410//3
f 407//4 401//4 411//4
f 412//4 401//4 405//4
f 412//4 411//4 401//4
f 408//220 407//220 413//220
f 408//220 413//220 414//220
f 414//3 409//3 408//3
f 407//4 411//4 413//4
f 414//221 413//221 415//221
f 414//221 415//221 416//221
f 416//3 417//3 414//3
f 417//3 409//3 414//3
f 413//4 418//4 415//4
f 413//4 411//4 418//4
f 416//70 415//70 419//70
f 416//3 420//3 417//3
f 416//3 421//3 420//3
f 416//3 422//3 421//3
f 423//3 422//3 416//3
f 423//3 416//3 424//3
f 424//3 416//3 425//3
f 425//3 416//3 426//3
f 426//3 416//3 427//3
f 427//3 416//3 428//3
f 428//3 416//3 429//3
f 416//70 419//70 429//70
f 418//4 430//4 415//4
f 430//4 431//4 415//4
f 431//4 432//4 415//4
f 415//4 432//4 433//4
f 434//4 415//4 433//4
f 435//4 415//4 434//4
f 436//4 415//4 435//4
f 437//4 415//4 436//4
f 438//4 415//4 437//4
f 419//4 415//4 438//4
f 439//222 406//222 402//222
f 402//3 440//3 439//3
f 402//3 404//3 441//3
f 402//3 441//3 442//3
f 402//3 442//3 443//3
f 402//3 443//3 444//3
f 402//3 444//3 440//3
f 439//222 445//222 406//222
f 445//4 446//4 406//4
f 447//4 405//4 406//4
f 448//4 447//4 406//4
f 449//4 448//4 406//4
f 450//4 449//4 406//4
f 446//4 450//4 406//4
f 451//223 445//223 439//223
f 452//3 451//3 439//3
f 440//3 453//3 439//3
f 453//3 454//3 439//3
f 454//3 452//3 439//3
f 451//223 455//223 445//223
f 445//4 455//4 456//4
f 445//4 457//4 446//4
f 445//4 458//4 457//4
f 445//4 456//4 458//4
f 405//149 404//149 412//149
f 404//224 405//224 441//224
f 410//149 412//149 404//149
f 447//224 441//224 405//224
f 412//146 410//146 411//146
f 409//146 411//146 410//146
f 411//225 409//225 418//225
f 417//225 418//225 409//225
f 459//226 455//226 451//226
f 460//3 459//3 451//3
f 461//3 451//3 452//3
f 462//3 451//3 461//3
f 462//3 463//3 451//3
f 463//3 460//3 451//3
f 459//226 464//226 455//226
f 455//4 464//4 465//4
f 456//4 455//4 466//4
f 466//4 455//4 467//4
f 455//4 468//4 467//4
f 455//227 465//227 468//227
f 418//228 417//228 430//228
f 420//228 430//228 417//228
f 430//229 420//229 431//229
f 421//229 431//229 420//229
f 431//230 421//230 432//230
f 422//230 432//230 421//230
f 432//231 422//231 469//231
f 470//232 469//232 422//232
f 470//3 422//3 423//3
f 433//4 432//4 469//4
f 469//233 470//233 433//233
f 423//234 433//234 470//234
f 433//235 423//235 434//235
f 424//235 434//235 423//235
f 434//236 424//236 435//236
f 425//236 435//236 424//236
f 435//237 425//237 436//237
f 426//237 436//237 425//237
f 471//123 464//123 459//123
f 471//3 459//3 460//3
f 471//123 472//123 464//123
f 465//4 464//4 472//4
f 436//238 426//238 437//238
f 427//238 437//238 426//238
f 437//239 427//239 438//239
f 428//239 438//239 427//239
f 441//240 447//240 442//240
f 448//240 442//240 447//240
f 473//241 472//241 471//241
f 471//3 474//3 473//3
f 460//3 475//3 471//3
f 475//3 474//3 471//3
f 473//241 476//241 472//241
f 476//4 477//4 472//4
f 472//4 478//4 465//4
f 472//4 477//4 478//4
f 442//242 448//242 443//242
f 449//242 443//242 448//242
f 438//243 428//243 479//243
f 480//243 479//243 428//243
f 480//3 428//3 429//3
f 419//4 438//4 479//4
f 443//244 449//244 444//244
f 450//244 444//244 449//244
f 444//245 450//245 440//245
f 446//246 440//246 450//246
f 481//247 476//247 473//247
f 481//3 473//3 482//3
f 473//3 474//3 482//3
f 481//247 483//247 476//247
f 484//4 476//4 483//4
f 484//4 477//4 476//4
f 440//244 446//244 453//244
f 457//244 453//244 446//244
f 453//248 457//248 454//248
f 458//248 454//248 457//248
f 485//249 483//249 481//249
f 481//3 486//3 485//3
f 481//3 487//3 486//3
f 482//3 487//3 481//3
f 485//249 488//249 483//249
f 488//4 489//4 483//4
f 489//4 490//4 483//4
f 483//4 490//4 484//4
f 479//250 480//250 491//250
f 492//250 491//250 480//250
f 492//3 480//3 429//3
f 419//4 479//4 491//4
f 454//251 458//251 452//251
f 456//251 452//251 458//251
f 491//252 492//252 493//252
f 494//252 493//252 492//252
f 492//3 495//3 494//3
f 495//3 492//3 429//3
f 493//4 496//4 491//4
f 419//4 491//4 496//4
f 452//253 456//253 461//253
f 466//253 461//253 456//253
f 461//254 466//254 462//254
f 467//254 462//254 466//254
f 462//255 467//255 463//255
f 468//255 463//255 467//255
f 463//256 468//256 460//256
f 465//257 460//257 468//257
f 460//258 465//258 497//258
f 460//3 497//3 498//3
f 460//3 499//3 475//3
f 460//3 500//3 499//3
f 498//3 500//3 460//3
f 501//259 497//259 465//259
f 502//4 501//4 465//4
f 478//4 503//4 465//4
f 503//4 504//4 465//4
f 465//4 504//4 502//4
f 505//260 488//260 485//260
f 505//3 485//3 506//3
f 485//3 486//3 506//3
f 505//260 507//260 488//260
f 508//4 488//4 507//4
f 508//4 489//4 488//4
f 497//261 501//261 509//261
f 497//3 509//3 498//3
f 510//262 509//262 501//262
f 502//4 510//4 501//4
f 509//263 510//263 511//263
f 509//3 511//3 498//3
f 512//264 511//264 510//264
f 502//4 512//4 510//4
f 511//265 512//265 513//265
f 511//3 513//3 498//3
f 514//265 513//265 512//265
f 502//4 514//4 512//4
f 513//266 514//266 515//266
f 513//3 515//3 498//3
f 516//267 515//267 514//267
f 502//4 516//4 514//4
f 515//268 516//268 517//268
f 515//3 517//3 498//3
f 518//268 517//268 516//268
f 502//4 518//4 516//4
f 517//269 518//269 519//269
f 517//3 519//3 498//3
f 520//270 519//270 518//270
f 502//4 520//4 518//4
f 519//271 520//271 521//271
f 519//3 521//3 498//3
f 522//271 521//271 520//271
f 502//4 522//4 520//4
f 521//272 522//272 523//272
f 521//3 523//3 498//3
f 524//272 523//272 522//272
f 502//4 524//4 522//4
f 523//273 524//273 525//273
f 523//3 525//3 498//3
f 526//273 525//273 524//273
f 502//4 526//4 524//4
f 525//274 526//274 527//274
f 525//3 527//3 498//3
f 528//274 527//274 526//274
f 502//4 528//4 526//4
f 527//275 528//275 529//275
f 527//3 529//3 498//3
f 530//275 529//275 528//275
f 502//4 530//4 528//4
f 529//276 530//276 531//276
f 529//3 531//3 498//3
f 532//276 531//276 530//276
f 502//4 532//4 530//4
f 531//277 532//277 533//277
f 531//3 533//3 498//3
f 534//277 533//277 532//277
f 502//4 534//4 532//4
f 533//278 534//278 535//278
f 533//3 535//3 498//3
f 536//219 535//219 534//219
f 502//4 536//4 534//4
f 535//279 536//279 537//279
f 535//3 537//3 498//3
f 538//279 537//279 536//279
f 502//4 538//4 536//4
f 537//1 538//1 494//1
f 537//3 494//3 539//3
f 537//3 539//3 498//3
f 493//1 494//1 538//1
f 540//4 493//4 538//4
f 502//4 540//4 538//4
f 494//3 495//3 539//3
f 540//4 496//4 493//4
f 541//280 507//280 505//280
f 542//3 541//3 505//3
f 542//3 505//3 506//3
f 541//281 543//281 507//281
f 507//4 543//4 544//4
f 508//4 507//4 544//4
f 545//282 543//282 541//282
f 545//3 541//3 542//3
f 545//282 546//282 543//282
f 544//4 543//4 546//4
f 547//71 546//71 545//71
f 547//3 545//3 542//3
f 547//71 548//71 546//71
f 544//4 546//4 548//4
f 542//283 548//283 547//283
f 542//284 544//284 548//284
f 506//285 544//285 542//285
f 506//286 508//286 544//286
f 486//287 508//287 506//287
f 486//287 489//287 508//287
f 487//288 489//288 486//288
f 487//288 490//288 489//288
f 482//289 490//289 487//289
f 482//289 484//289 490//289
f 474//290 484//290 482//290
f 474//290 477//290 484//290
f 475//291 477//291 474//291
f 475//291 478//291 477//291
f 499//292 478//292 475//292
f 499//292 503//292 478//292
f 500//293 503//293 499//293
f 500//293 504//293 503//293
f 498//294 504//294 500//294
f 498//294 502//294 504//294
f 429//295 419//295 496//295
f 429//295 496//295 495//295
f 495//296 496//296 540//296
f 495//296 540//296 539//296
f 539//149 502//149 498//149
f 539//149 540//149 502//149
f 549//297 550//297 551//297
f 551//298 550//298 552//298
f 549//3 551//3 553//3
f 551//298 552//298 553//298
f 549//297 554//297 550//297
f 552//4 550//4 554//4
f 555//299 554//299 549//299
f 555//3 549//3 553//3
f 552//4 554//4 556//4
f 555//299 556//299 554//299
f 553//300 552//300 557//300
f 555//3 553//3 558//3
f 553//300 557//300 558//300
f 557//4 552//4 556//4
f 559//301 556//301 555//301
f 559//3 555//3 558//3
f 557//4 556//4 560//4
f 559//301 560//301 556//301
f 558//302 557//302 561//302
f 559//3 558//3 562//3
f 558//302 561//302 562//302
f 561//4 557//4 560//4
f 563//303 560//303 559//303
f 562//3 564//3 559//3
f 563//3 559//3 564//3
f 560//4 565//4 561//4
f 565//4 560//4 566//4
f 563//303 566//303 560//303
f 562//304 561//304 565//304
f 562//304 565//304 564//304
f 564//305 565//305 567//305
f 568//3 563//3 564//3
f 564//305 567//305 568//305
f 565//4 566//4 567//4
f 569//306 566//306 563//306
f 568//3 570//3 563//3
f 570//3 569//3 563//3
f 566//4 571//4 567//4
f 566//4 572//4 571//4
f 569//306 572//306 566//306
f 568//307 567//307 571//307
f 568//307 571//307 570//307
f 570//308 571//308 573//308
f 574//3 569//3 570//3
f 570//308 573//308 574//308
f 571//4 572//4 573//4
f 575//309 572//309 569//309
f 574//3 576//3 569//3
f 576//3 575//3 569//3
f 572//4 577//4 573//4
f 575//309 578//309 572//309
f 572//4 578//4 577//4
f 574//310 573//310 577//310
f 574//310 577//310 576//310
f 579//311 578//311 575//311
f 580//3 575//3 576//3
f 579//3 575//3 580//3
f 577//4 578//4 581//4
f 579//311 582//311 578//311
f 581//4 578//4 582//4
f 576//312 577//312 581//312
f 576//312 581//312 580//312
f 583//313 582//313 579//313
f 584//3 579//3 580//3
f 584//3 583//3 579//3
f 581//4 582//4 585//4
f 582//4 586//4 585//4
f 583//313 586//313 582//313
f 580//314 581//314 585//314
f 580//314 585//314 584//314
f 584//315 585//315 587//315
f 588//3 583//3 584//3
f 584//315 587//315 588//315
f 585//4 586//4 587//4
f 589//1 590//1 586//1
f 591//316 590//316 589//316
f 589//1 586//1 583//1
f 592//3 589//3 583//3
f 591//3 589//3 593//3
f 593//3 589//3 592//3
f 586//4 590//4 594//4
f 591//316 595//316 590//316
f 596//4 590//4 595//4
f 594//4 590//4 596//4
f 597//3 583//3 588//3
f 597//3 598//3 583//3
f 583//3 598//3 599//3
f 592//3 583//3 599//3
f 587//4 586//4 600//4
f 586//4 601//4 600//4
f 602//4 601//4 586//4
f 602//4 586//4 594//4
f 603//165 595//165 591//165
f 593//3 603//3 591//3
f 603//165 604//165 595//165
f 595//4 604//4 596//4
f 605//163 604//163 603//163
f 603//3 606//3 605//3
f 603//3 593//3 606//3
f 605//163 607//163 604//163
f 607//4 608//4 604//4
f 608//4 596//4 604//4
f 609//317 607//317 605//317
f 610//3 609//3 605//3
f 610//3 605//3 611//3
f 605//3 606//3 611//3
f 609//317 612//317 607//317
f 607//4 612//4 613//4
f 614//4 607//4 613//4
f 614//4 608//4 607//4
f 615//318 612//318 609//318
f 615//3 609//3 616//3
f 609//3 617//3 616//3
f 610//3 617//3 609//3
f 615//318 618//318 612//318
f 619//4 612//4 618//4
f 619//4 620//4 612//4
f 612//4 620//4 613//4
f 621//18 618//18 615//18
f 622//3 621//3 615//3
f 622//3 615//3 616//3
f 621//18 623//18 618//18
f 618//4 623//4 624//4
f 619//4 618//4 624//4
f 625//113 623//113 621//113
f 626//3 625//3 621//3
f 621//3 627//3 626//3
f 622//3 627//3 621//3
f 625//113 628//113 623//113
f 623//4 628//4 629//4
f 629//4 630//4 623//4
f 623//4 630//4 624//4
f 631//319 628//319 625//319
f 632//3 631//3 625//3
f 632//3 625//3 626//3
f 631//319 633//319 628//319
f 628//4 633//4 634//4
f 629//4 628//4 634//4
f 635//320 633//320 631//320
f 636//3 635//3 631//3
f 636//3 631//3 632//3
f 635//320 637//320 633//320
f 633//4 637//4 638//4
f 634//4 633//4 638//4
f 639//321 637//321 635//321
f 635//3 640//3 639//3
f 636//3 640//3 635//3
f 639//321 641//321 637//321
f 641//4 642//4 637//4
f 637//4 642//4 638//4
f 643//322 641//322 639//322
f 644//3 643//3 639//3
f 644//3 639//3 645//3
f 639//3 640//3 645//3
f 643//322 646//322 641//322
f 641//4 646//4 647//4
f 648//4 641//4 647//4
f 648//4 642//4 641//4
f 649//323 646//323 643//323
f 644//3 649//3 643//3
f 649//323 650//323 646//323
f 646//4 650//4 647//4
f 651//324 650//324 649//324
f 649//3 652//3 651//3
f 644//3 652//3 649//3
f 651//324 653//324 650//324
f 653//4 654//4 650//4
f 650//4 654//4 647//4
f 655//325 653//325 651//325
f 656//3 655//3 651//3
f 651//3 652//3 656//3
f 655//325 657//325 653//325
f 653//4 657//4 658//4
f 658//4 654//4 653//4
f 659//326 657//326 655//326
f 660//3 659//3 655//3
f 660//3 655//3 661//3
f 655//3 656//3 661//3
f 659//326 662//326 657//326
f 657//4 662//4 663//4
f 664//4 657//4 663//4
f 664//4 658//4 657//4
f 660//71 662//71 659//71
f 660//71 663//71 662//71
f 661//327 663//327 660//327
f 661//327 664//327 663//327
f 656//328 664//328 661//328
f 656//328 658//328 664//328
f 652//329 658//329 656//329
f 652//329 654//329 658//329
f 644//330 654//330 652//330
f 644//330 647//330 654//330
f 588//331 587//331 600//331
f 588//331 600//331 597//331
f 645//332 647//332 644//332
f 645//332 648//332 647//332
f 640//333 648//333 645//333
f 640//333 642//333 648//333
f 597//334 600//334 601//334
f 597//334 601//334 598//334
f 636//153 642//153 640//153
f 636//153 638//153 642//153
f 632//335 638//335 636//335
f 632//335 634//335 638//335
f 598//336 601//336 602//336
f 598//336 602//336 599//336
f 626//337 634//337 632//337
f 626//337 629//337 634//337
f 627//338 629//338 626//338
f 627//338 630//338 629//338
f 599//339 602//339 665//339
f 599//339 665//339 666//339
f 599//3 666//3 592//3
f 594//4 665//4 602//4
f 622//340 630//340 627//340
f 622//340 624//340 630//340
f 616//341 624//341 622//341
f 616//341 619//341 624//341
f 666//70 665//70 667//70
f 666//3 668//3 592//3
f 669//3 668//3 666//3
f 670//3 669//3 666//3
f 671//3 670//3 666//3
f 672//3 671//3 666//3
f 673//3 672//3 666//3
f 674//3 673//3 666//3
f 675//3 674//3 666//3
f 676//3 675//3 666//3
f 666//70 667//70 676//70
f 594//4 677//4 665//4
f 665//4 677//4 678//4
f 665//4 678//4 679//4
f 665//4 679//4 680//4
f 665//4 680//4 681//4
f 665//4 681//4 682//4
f 665//4 682//4 683//4
f 665//4 683//4 684//4
f 665//4 684//4 667//4
f 617//342 619//342 616//342
f 617//342 620//342 619//342
f 610//343 620//343 617//343
f 610//343 613//343 620//343
f 596//149 593//149 594//149
f 593//344 596//344 685//344
f 592//149 594//149 593//149
f 686//3 606//3 593//3
f 593//3 685//3 687//3
f 686//3 593//3 688//3
f 593//3 689//3 688//3
f 690//3 689//3 593//3
f 593//3 687//3 690//3
f 596//4 608//4 691//4
f 692//344 685//344 596//344
f 693//4 692//4 596//4
f 694//4 596//4 691//4
f 694//4 695//4 596//4
f 596//4 695//4 696//4
f 696//4 693//4 596//4
f 594//345 592//345 677//345
f 668//345 677//345 592//345
f 611//346 613//346 610//346
f 611//346 614//346 613//346
f 606//347 614//347 611//347
f 606//347 608//347 614//347
f 677//348 668//348 678//348
f 669//348 678//348 668//348
f 678//349 669//349 679//349
f 670//349 679//349 669//349
f 686//350 608//350 606//350
f 686//350 691//350 608//350
f 679//351 670//351 680//351
f 671//351 680//351 670//351
f 685//352 692//352 697//352
f 697//3 698//3 685//3
f 685//3 699//3 687//3
f 685//3 700//3 699//3
f 685//3 698//3 700//3
f 701//352 697//352 692//352
f 692//4 702//4 701//4
f 693//4 703//4 692//4
f 703//4 704//4 692//4
f 704//4 702//4 692//4
f 680//353 671//353 681//353
f 672//353 681//353 671//353
f 688//354 691//354 686//354
f 688//354 694//354 691//354
f 681//355 672//355 682//355
f 673//355 682//355 672//355
f 682//356 673//356 683//356
f 674//356 683//356 673//356
f 683//357 674//357 684//357
f 675//357 684//357 674//357
f 689//358 694//358 688//358
f 689//358 695//358 694//358
f 684//359 675//359 705//359
f 706//359 705//359 675//359
f 675//3 707//3 706//3
f 676//3 707//3 675//3
f 705//4 708//4 684//4
f 684//4 708//4 667//4
f 705//360 706//360 709//360
f 710//360 709//360 706//360
f 706//3 707//3 710//3
f 709//4 708//4 705//4
f 690//207 695//207 689//207
f 690//207 696//207 695//207
f 697//361 701//361 711//361
f 697//3 711//3 712//3
f 698//3 697//3 713//3
f 714//3 713//3 697//3
f 714//3 697//3 712//3
f 715//361 711//361 701//361
f 716//4 715//4 701//4
f 717//4 701//4 702//4
f 701//4 717//4 718//4
f 716//4 701//4 718//4
f 711//1 715//1 710//1
f 711//3 710//3 719//3
f 711//3 719//3 712//3
f 709//1 710//1 715//1
f 720//4 709//4 715//4
f 716//4 720//4 715//4
f 710//3 707//3 719//3
f 720//4 708//4 709//4
f 687//362 696//362 690//362
f 687//362 693//362 696//362
f 699//363 693//363 687//363
f 699//363 703//363 693//363
f 700//208 703//208 699//208
f 700//208 704//208 703//208
f 698//294 704//294 700//294
f 698//294 702//294 704//294
f 713//364 702//364 698//364
f 713//364 717//364 702//364
f 714//154 717//154 713//154
f 714//154 718//154 717//154
f 676//365 667//365 708//365
f 676//365 708//365 707//365
f 721//366 718//366 714//366
f 721//3 714//3 712//3
f 721//366 722//366 718//366
f 716//4 718//4 722//4
f 723//367 722//367 721//367
f 721//3 712//3 723//3
f 723//367 724//367 722//367
f 724//4 716//4 722//4
f 707//368 708//368 720//368
f 707//368 720//368 719//368
f 725//369 724//369 723//369
f 725//3 723//3 712//3
f 725//369 726//369 724//369
f 716//4 724//4 726//4
f 727//370 726//370 725//370
f 725//3 712//3 727//3
f 728//4 716//4 726//4
f 727//370 728//370 726//370
f 719//149 716//149 712//149
f 712//371 716//371 729//371
f 712//3 730//3 727//3
f 712//372 729//372 730//372
f 719//149 720//149 716//149
f 728//4 729//4 716//4
f 731//373 728//373 727//373
f 730//3 731//3 727//3
f 728//4 732//4 729//4
f 731//373 732//373 728//373
f 730//374 729//374 733//374
f 730//375 733//375 734//375
f 734//3 731//3 730//3
f 729//4 732//4 733//4
f 734//376 733//376 735//376
f 736//3 731//3 734//3
f 734//376 735//376 736//376
f 733//4 732//4 735//4
f 737//377 732//377 731//377
f 736//3 738//3 731//3
f 737//3 731//3 738//3
f 732//4 739//4 735//4
f 739//4 732//4 740//4
f 737//377 740//377 732//377
f 736//378 735//378 739//378
f 736//378 739//378 738//378
f 738//379 739//379 741//379
f 737//3 738//3 742//3
f 738//379 741//379 742//379
f 741//4 739//4 740//4
f 743//380 740//380 737//380
f 737//3 742//3 743//3
f 744//4 741//4 740//4
f 743//380 744//380 740//380
f 742//381 741//381 745//381
f 742//3 746//3 743//3
f 746//3 742//3 747//3
f 742//381 745//381 747//381
f 744//4 748//4 741//4
f 745//4 741//4 748//4
f 746//382 744//382 743//382
f 746//382 748//382 744//382
f 747//149 748//149 746//149
f 747//149 745//149 748//149
